<svg width="128" height="128" xmlns="http://www.w3.org/2000/svg"><path fill="#fff" fill-rule="evenodd" stroke="#000" stroke-width=".838" d="M8.129 79.06c.327 1.35 1.27 2.51 2.599 3.201 1.05.546 2.833.518 4.017-.064 1.018-.5 1.714-1.235 2.226-2.354l.367-.802-.045-6.494c-.041-6.023-.065-6.534-.334-7.032-.584-1.083-1.183-1.676-2.201-2.177-.874-.43-1.172-.5-2.126-.49-1.88.016-3.451 1.05-4.262 2.802-.315.683-.328.933-.354 6.77-.015 3.335.036 6.322.113 6.64Zm14.045-19.476c1.288 7.132 6.996 12.41 14.4 13.315.764.093 1.777.135 2.253.092l.864-.077.264 1.326c.144.73.289 1.37.32 1.422.055.088 3.593-.602 3.734-.727.035-.031-.061-.648-.213-1.371-.159-.756-.218-1.365-.14-1.432.076-.064.62-.316 1.211-.56.59-.245 1.688-.855 2.439-1.357 3.392-2.268 5.701-5.578 6.803-9.752.53-2.007.56-5.213.072-7.346-1.363-5.943-5.848-10.636-11.692-12.235-2.774-.76-6.335-.687-9.126.185-7.833 2.448-12.652 10.422-11.19 18.517Zm2.123 25.677a4.849 4.849 0 0 0 2.618 2.994c1.083.495 2.765.48 3.836-.035 1.046-.503 1.984-1.507 2.369-2.536.297-.795.316-1.167.316-6.259v-5.414l-.882-.276c-2.454-.768-4.844-2.259-6.981-4.355l-1.496-1.467.01 8.354c.008 6.42.057 8.502.21 8.994Zm1.005-31.937c1.99-7.782 10.532-12.076 17.954-9.027 3.804 1.562 6.415 4.417 7.761 8.482.4 1.205.432 1.49.44 3.76.007 2.108-.041 2.623-.338 3.65-1.698 5.858-6.873 9.776-12.912 9.776-4.01 0-7.514-1.642-10.222-4.79-1.441-1.676-2.623-4.307-2.983-6.642-.204-1.325-.062-3.794.3-5.209Zm1.517 5.746c.537 2.444 1.754 4.543 3.628 6.26.903.828 2.784 1.966 3.718 2.25l.345.104v-8.666c0-7.999-.022-8.738-.283-9.579-.288-.925-.95-2.023-1.541-2.555-.396-.356-.614-.264-1.98.841-1.644 1.33-3.215 3.837-3.793 6.051-.389 1.489-.43 3.77-.094 5.294Zm9.614 9.111c.138.053.959.097 1.824.097 4.02 0 7.741-2.022 9.81-5.33.367-.587.406-.792.406-2.154 0-.852-.102-1.903-.235-2.42-.488-1.9-1.903-3.516-3.702-4.23-1.245-.495-3.276-.494-4.546.002-1.238.484-2.572 1.752-3.214 3.055l-.501 1.018-.046 4.933c-.042 4.448-.022 4.943.204 5.03Zm1.721 8.074c.389-.008.478-.257.32-.885-.223-.875-.435-.817-.435.12 0 .422.052.766.115.765Zm.323 19.593c.15.436.452 1.023.669 1.305.535.692 6.365 4.264 7.397 4.531 2.732.71 5.455-1.905 4.843-4.649-.236-1.055-.815-1.97-1.574-2.49-.873-.598-5.27-3.293-5.942-3.643-.368-.191-.875-.28-1.611-.282-.904-.003-1.206.069-1.906.451-.964.527-1.608 1.335-1.932 2.426-.291.982-.282 1.374.056 2.351Zm1.745-12.225.926 5.294 1.17.013c1.444.017 2.16.289 4.313 1.639.885.555 1.636.983 1.668.951.091-.09-2.47-14.863-2.603-15.015-.068-.078-1.48.149-3.274.525-2.896.607-3.154.687-3.141.98.007.175.43 2.701.94 5.613Zm4.254 24.517c.57 3.23 1.064 5.898 1.098 5.93.077.07 6.269-1.234 6.38-1.345.086-.086-1.547-9.725-1.667-9.846-.038-.037-.443.076-.903.252-.681.26-1.088.307-2.217.259-1.277-.055-1.475-.109-2.57-.7-.653-.352-1.18-.591-1.173-.531.009.06.482 2.751 1.052 5.981Zm1.107-34.223c.144.641.303.752.806.559.18-.069.243-.308.243-.92 0-.476-.069-.828-.161-.828-.163 0-1.08.439-1.05.502.009.02.082.328.162.687Zm.82-22.711c.116.527.4 1.308.632 1.735.476.875 1.602 2.071 2.357 2.506l.503.289-.105-.75c-.159-1.13-.543-2.38-.874-2.846-.163-.228-.398-.703-.522-1.056-.24-.68-1.028-1.835-1.651-2.418l-.377-.352-.097.487c-.138.69-.104 1.305.135 2.405Zm.364-10.912c.078.397.34.645 1.504 1.422.774.517 2.025 1.56 2.78 2.319l1.372 1.378h.87c2.897 0 4.492 3.38 2.688 5.696-.43.552-.431.563-.215 1.381.12.454.295 1.516.389 2.36.52 4.68-1.035 9.688-4.169 13.428l-.578.69-.059 6.522c-.051 5.707-.093 6.646-.336 7.52-.32 1.144-1.002 2.723-1.45 3.352l-.306.43.523 2.96.522 2.961.906.82c.498.45.992 1.03 1.098 1.286.107.256.25.466.32.466.213 0 1.883-1.448 2.586-2.243 2.111-2.386 3.552-5.394 4.333-9.045.306-1.428.333-2.12.42-10.893.086-8.679.113-9.399.37-9.79.926-1.413 3.263-1.352 4.06.106.246.448.272 1.8.35 18.055.083 17.217.09 17.599.41 18.994.463 2.016.895 3.273 1.692 4.921 2.77 5.727 8.246 9.14 15.23 9.492 2.401.12 3.255-.123 4.381-1.249.636-.635.87-1.009 1.073-1.705.603-2.076-.282-4.146-2.17-5.07-.701-.343-1.154-.433-2.716-.538-1.03-.07-2.276-.233-2.768-.364-2.926-.779-4.9-2.728-5.973-5.9l-.498-1.471-.042-21.966-.042-21.966.81-.456c1.042-.589 2.035-1.673 2.54-2.773.788-1.72.602-4.278-.421-5.795-.402-.596-.411-.651-.19-1.074.37-.706 1.043-2.801 1.275-3.976.16-.809.213-2.608.213-7.289 0-5.452-.034-6.375-.281-7.52-1.825-8.452-9.62-13.932-17.793-12.507-5.47.954-10.216 5.076-12.002 10.423-.791 2.369-.843 2.989-.821 9.81.01 3.473.063 6.533.115 6.798Zm21.51 7.525c.202-.729 1.076-1.714 1.884-2.126.476-.243.823-.3 1.565-.252 1.146.073 1.999.57 2.638 1.535.38.573.423.776.423 1.955 0 1.239-.03 1.358-.506 2.045-.278.4-.703.83-.945.956l-.44.227.232-.466c.687-1.376-.838-2.792-2.231-2.072-.794.411-1.034 1.577-.471 2.293.386.49.134.539-.57.11-1.385-.845-2.033-2.57-1.579-4.205ZM80.268 76.64c.376 1.061 1.297 2.105 2.344 2.659.654.346.96.406 2.072.408 1.05.001 1.442-.066 2.014-.348a4.94 4.94 0 0 0 2.265-2.325l.4-.855.045-7.95c.039-6.771.01-8.088-.192-8.876-.689-2.69-3.287-4.087-6.065-3.262-.625.186-1.027.45-1.688 1.112-1.433 1.434-1.384 1.054-1.37 10.679.008 5.44.068 8.456.175 8.758Zm15.168 3.34a4.768 4.768 0 0 0 2.542 3.198c.611.301.98.367 2.05.364 1.111-.004 1.42-.065 2.09-.415.432-.226 1.067-.73 1.41-1.121 1.183-1.344 1.112.03 1.067-20.567l-.041-18.406-.455-.821c-.862-1.557-2.269-2.38-4.072-2.384-1.913-.004-3.41.927-4.253 2.644l-.426.868-.025 18.031c-.014 10.21.035 18.281.113 18.609Zm15.418-15.973c.308.986 1.521 2.288 2.558 2.743 1.084.476 2.66.491 3.674.035 1.006-.452 2.022-1.443 2.449-2.387l.362-.802v-6.445c0-6.424 0-6.447-.354-7.165-.47-.954-1.329-1.818-2.262-2.275-1.035-.507-2.88-.53-3.928-.049-.91.418-1.91 1.417-2.332 2.33-.319.69-.33.926-.36 7.006-.026 5.154.009 6.421.193 7.01Z"/></svg>