<svg width="128" height="128" xmlns="http://www.w3.org/2000/svg"><linearGradient id="a" x1="77.293" y1="54.947" x2="77.293" y2="103.308" gradientUnits="userSpaceOnUse"><stop offset=".3" stop-color="#6d3b78"/><stop offset="1" stop-color="#b062c2"/></linearGradient><path fill="url(#a)" fill-rule="evenodd" d="M70.362 54.947a4.115 4.115 0 0 1 4.111 4.12V85.745c.008.269.033.676.106 1.173.138 1.017.43 2.312 1.024 3.541.585 1.213 1.421 2.312 2.648 3.127 1.21.797 3.063 1.49 5.972 1.49a4.115 4.115 0 0 1 4.111 4.12 4.11 4.11 0 0 1-4.11 4.119c-4.283 0-7.76-1.042-10.49-2.85-2.722-1.791-4.445-4.168-5.533-6.424-1.073-2.238-1.552-4.42-1.763-6.008a20.757 20.757 0 0 1-.171-1.978c-.008-.245-.008-.448-.008-.603V59.066a4.115 4.115 0 0 1 4.111-4.12Z"/><linearGradient id="b" x1="50.594" y1="46.202" x2="50.594" y2="110" gradientUnits="userSpaceOnUse"><stop offset=".3" stop-color="#6d3b78"/><stop offset="1" stop-color="#b062c2"/></linearGradient><path fill="url(#b)" fill-rule="evenodd" d="M57.524 46.202a4.115 4.115 0 0 0-4.11 4.12V92.44a10.21 10.21 0 0 1-.107 1.172c-.138 1.018-.43 2.312-1.023 3.542-.585 1.213-1.422 2.312-2.649 3.126-1.21.798-3.063 1.49-5.972 1.49a4.115 4.115 0 0 0-4.111 4.12 4.11 4.11 0 0 0 4.111 4.12c4.282 0 7.76-1.043 10.49-2.85 2.721-1.792 4.444-4.169 5.533-6.424 1.072-2.24 1.551-4.421 1.763-6.009.105-.806.154-1.481.17-1.978.009-.244.009-.448.009-.603V50.322a4.115 4.115 0 0 0-4.112-4.12Z"/><path fill="#6d3b78" fill-rule="evenodd" d="M78.576 42.596h-.032a15.702 15.702 0 0 1-2.389 7.409h.098a.327.327 0 0 0-.139.073c-.227.358-.479.716-.739 1.05-.43.839-.878 2.052-1.162 3.354.163.806.252 1.645.252 2.508 0 5.48-3.534 10.055-8.23 11.097.008-.106.016-.203.016-.31 0-1.408-1.032-2.556-2.308-2.556-1.276 0-2.307 1.14-2.307 2.557v.179c-4.437-1.254-7.711-5.691-7.711-10.967h-.48c0-2.125-.747-4.502-1.446-5.87-.26-.342-.503-.692-.739-1.05a.327.327 0 0 0-.138-.074h.097a15.67 15.67 0 0 1-2.388-7.408h-.033v-9.266c0-8.507 6.663-15.42 14.885-15.42 8.223 0 14.893 6.913 14.893 15.437v9.257Z"/><linearGradient id="c" x1="84.15" y1="59.066" x2="84.15" y2="80.161" gradientUnits="userSpaceOnUse"><stop offset=".3" stop-color="#6d3b78"/><stop offset="1" stop-color="#b062c2"/></linearGradient><path fill="url(#c)" fill-rule="evenodd" d="M84.15 59.066a4.115 4.115 0 0 1 4.111 4.12V76.05a4.115 4.115 0 0 1-4.111 4.12 4.11 4.11 0 0 1-4.111-4.12V63.186a4.115 4.115 0 0 1 4.111-4.12Z"/><linearGradient id="d" x1="97.914" y1="43.63" x2="97.914" y2="82.213" gradientUnits="userSpaceOnUse"><stop offset=".3" stop-color="#6d3b78"/><stop offset="1" stop-color="#b062c2"/></linearGradient><path fill="url(#d)" fill-rule="evenodd" d="M97.914 43.63a4.115 4.115 0 0 1 4.111 4.12v30.36a4.115 4.115 0 0 1-4.111 4.119 4.11 4.11 0 0 1-4.112-4.12V47.75a4.115 4.115 0 0 1 4.112-4.12Z"/><linearGradient id="e" x1="111.889" y1="50.827" x2="111.889" y2="68.323" gradientUnits="userSpaceOnUse"><stop offset=".3" stop-color="#6d3b78"/><stop offset="1" stop-color="#b062c2"/></linearGradient><path fill="url(#e)" fill-rule="evenodd" d="M111.889 50.835a4.115 4.115 0 0 1 4.111 4.12v9.265a4.115 4.115 0 0 1-4.111 4.12 4.11 4.11 0 0 1-4.112-4.12v-9.265a4.115 4.115 0 0 1 4.112-4.12Z"/><linearGradient id="f" x1="16.111" y1="66.499" x2="16.111" y2="83.988" gradientUnits="userSpaceOnUse"><stop offset=".3" stop-color="#6d3b78"/><stop offset="1" stop-color="#b062c2"/></linearGradient><path fill="url(#f)" fill-rule="evenodd" d="M16.111 66.5a4.115 4.115 0 0 1 4.111 4.12v9.264a4.115 4.115 0 0 1-4.11 4.12A4.11 4.11 0 0 1 12 79.884V70.62a4.115 4.115 0 0 1 4.111-4.12Z"/><linearGradient id="g" x1="29.875" y1="49.003" x2="29.875" y2="87.073" gradientUnits="userSpaceOnUse"><stop offset=".3" stop-color="#6d3b78"/><stop offset="1" stop-color="#b062c2"/></linearGradient><path fill="url(#g)" fill-rule="evenodd" d="M29.875 49.003a4.115 4.115 0 0 1 4.111 4.12v29.839a4.115 4.115 0 0 1-4.111 4.12 4.11 4.11 0 0 1-4.111-4.12v-29.84a4.115 4.115 0 0 1 4.111-4.119Z"/><linearGradient id="h" x1="43.647" y1="58.26" x2="43.647" y2="82.449" gradientUnits="userSpaceOnUse"><stop offset=".3" stop-color="#6d3b78"/><stop offset="1" stop-color="#b062c2"/></linearGradient><path fill="url(#h)" fill-rule="evenodd" d="M43.647 58.268a4.115 4.115 0 0 1 4.111 4.12v15.95a4.115 4.115 0 0 1-4.111 4.119 4.11 4.11 0 0 1-4.111-4.12V62.388a4.115 4.115 0 0 1 4.11-4.12Z"/><path fill="#6d3b78" d="M78.235 52.439c0 3.161-2.452 5.723-5.476 5.723-3.025 0-5.476-2.562-5.476-5.723s2.451-5.724 5.476-5.724c3.024 0 5.476 2.563 5.476 5.724Z"/><path fill="#fff" d="M76.041 52.439c0 1.897-1.47 3.436-3.282 3.436-1.813 0-3.283-1.539-3.283-3.436 0-1.898 1.47-3.436 3.283-3.436s3.282 1.538 3.282 3.436Z"/><path fill="#6d3b78" d="M60.774 52.439c0 3.161-2.451 5.723-5.476 5.723-3.024 0-5.476-2.562-5.476-5.723s2.452-5.724 5.476-5.724c3.025 0 5.476 2.563 5.476 5.724Z"/><path fill="#fff" d="M58.58 52.439c0 1.897-1.469 3.436-3.282 3.436s-3.282-1.539-3.282-3.436c0-1.898 1.47-3.436 3.282-3.436 1.813 0 3.283 1.538 3.283 3.436Z"/><path fill="#393939" d="M57.013 54.434c0 .854-.692 1.547-1.544 1.547a1.545 1.545 0 0 1-1.544-1.547c0-.855.691-1.547 1.544-1.547.852 0 1.544.692 1.544 1.547ZM74.473 54.434c0 .854-.691 1.547-1.544 1.547a1.545 1.545 0 0 1-1.543-1.547c0-.855.69-1.547 1.543-1.547s1.544.692 1.544 1.547Z"/></svg>