<svg width="128" height="128" xmlns="http://www.w3.org/2000/svg"><path fill="#fff" fill-rule="evenodd" stroke="#000" stroke-width=".674" d="M61.868 8.194c-3.76.403-7.139 2.04-9.892 4.793-2.562 2.562-4.187 5.696-4.815 9.285-.32 1.829-.317 13.329.004 15.179.26 1.503.873 3.412 1.481 4.617l.433.857-.308.604c-1.021 1.997-.901 4.625.296 6.491.57.889 1.526 1.772 2.35 2.173l.642.312v18.797c0 12.727-.05 19.156-.154 19.909-.362 2.612-1.427 4.88-3 6.39-1.68 1.613-3.72 2.35-7.151 2.588-2.111.146-2.813.393-3.78 1.33-1.777 1.726-1.792 4.707-.031 6.468.304.304.87.71 1.258.903.659.326.848.349 2.908.344 4.157-.01 7.673-1.031 10.863-3.155 3.947-2.628 6.532-6.68 7.778-12.193.32-1.414.322-1.5.4-16.347.087-16.536.013-15.352 1.004-16.186 1.152-.97 2.817-.738 3.752.523.292.394.299.563.38 9.027.077 7.973.106 8.75.385 10.276.803 4.384 2.465 7.779 5.19 10.6 2.38 2.466 4.912 3.838 8.7 4.71 1.085.252 4.011.738 4.431.738.072 0 .211-.222.31-.494.098-.271.426-.823.729-1.226.412-.55.61-1.004.788-1.816.13-.597.448-2.012.707-3.145.258-1.134.45-2.082.426-2.107-.023-.025-.705-.106-1.514-.18-2.04-.188-3.85-.53-5.025-.95-2.686-.96-4.37-2.933-5.425-6.359l-.394-1.28-.076-13.362c-.04-7.35-.051-13.445-.022-13.547.03-.101.374-.346.765-.545.888-.45 2.006-1.483 2.48-2.291 1.23-2.1 1.187-5.046-.103-6.957l-.404-.599.491-1.204a18.447 18.447 0 0 0 1.186-4.42c.2-1.437.2-12.362 0-13.799-1.083-7.784-6.939-13.727-14.49-14.704-1.04-.134-2.553-.154-3.553-.048Zm41.924 14.454c-1.494.403-3.01 1.746-3.518 3.117-.336.908-4.302 21.75-4.158 21.85.057.039-.233 1.798-.645 3.909-.412 2.111-.753 4.07-.758 4.353-.02 1.212.977 2.926 2.17 3.726.586.393 1.013.542 2.103.73.821.143 1.588.198 1.919.139 1.473-.265 3-1.434 3.676-2.817.257-.526.574-1.845 1.066-4.435 4.774-25.139 4.72-24.843 4.658-25.87-.137-2.273-1.647-4.097-3.87-4.676-.995-.26-1.75-.267-2.643-.026Zm-77.99 20.084c-.808.286-1.96 1.347-2.429 2.238l-.383.726v35.823l.326.61c.48.9 1.267 1.707 2.082 2.137.633.333.882.379 2.07.38 1.232 0 1.417-.037 2.111-.421.971-.538 1.78-1.458 2.149-2.442.284-.761.288-1.025.288-18.176 0-17.15-.004-17.414-.288-18.176-.402-1.072-1.288-2.032-2.336-2.527-.718-.34-1.032-.405-1.924-.395-.587.006-1.337.106-1.667.223Zm29.75.258c1.268.528 2.19 1.959 2.192 3.4.002 1.254-.252 1.907-1.07 2.753-.741.767-1.281 1.038-.856.43.478-.681.144-1.913-.626-2.311-1.654-.855-3.37 1.079-2.196 2.474.425.506.274.554-.5.158-1.122-.572-2.001-2.039-2-3.335.003-1.767 1.228-3.373 2.89-3.788.54-.135 1.564-.031 2.166.22Zm19.552.088c.806.405 1.31.896 1.692 1.643.455.89.498 2.675.085 3.462-.33.63-1.038 1.386-1.545 1.651l-.39.205.283-.466c.345-.566.359-.978.053-1.623-.281-.592-.836-.904-1.607-.904-1.258 0-1.992 1.47-1.31 2.624.344.584.328.594-.375.232-2.058-1.061-2.677-3.872-1.261-5.73.479-.63 1.373-1.214 2.14-1.4.602-.145 1.614-.007 2.235.306Zm37.846 1.842c-.744.227-1.8 1.04-2.288 1.759-.687 1.014-.89 1.876-.89 3.784v1.66l1.374 1.193a83.084 83.084 0 0 0 1.562 1.335c.152.116.04.904-.597 4.186-.432 2.224-.758 4.113-.726 4.197.033.085.403.345.822.577.704.39.874.423 2.185.423 1.21 0 1.512-.049 2.031-.326.873-.466 1.706-1.354 2.141-2.283l.377-.803V48.254l-.377-.802c-.792-1.69-2.162-2.586-4.03-2.637-.626-.017-1.338.03-1.584.105Zm-20.885 5.715-2 .697-1.178 6.12c-.678 3.527-1.122 6.158-1.046 6.209.072.049 1.488 1.264 3.146 2.7 2.127 1.842 2.995 2.68 2.947 2.843-.248.853-5.353 23.795-5.317 23.894.025.068 1.805-1.186 3.955-2.786 2.15-1.6 4.212-3.067 4.582-3.258.418-.217.7-.47.747-.667.041-.176.62-3.803 1.288-8.06.667-4.258 1.233-7.762 1.257-7.787.025-.025 1.925-.7 4.221-1.499l4.176-1.453 1.167-6.042c.642-3.323 1.155-6.08 1.14-6.127-.044-.135-3.512-3.113-3.626-3.113-.056 0-.51 2.127-1.006 4.727-.497 2.6-.993 4.9-1.1 5.113-.243.475-.603.68-1.2.68-.437 0-9.595-1.716-10.679-2.002-.631-.166-1.11-.725-1.11-1.299 0-.23.39-2.43.864-4.89.474-2.46.842-4.523.817-4.585-.025-.061-.946.202-2.045.585Zm-51.022 2.288c-.965.32-1.43.623-2.1 1.368-1.215 1.35-1.16.834-1.211 11.378-.032 6.533.002 9.565.116 10.164.198 1.05.637 1.83 1.455 2.583 2.234 2.06 5.86 1.295 7.197-1.517l.371-.782v-9.95c0-9.925 0-9.954-.31-10.622-.443-.96-1.482-2.012-2.36-2.391-.899-.388-2.361-.495-3.158-.231Zm42.645 1.034c-1.399.349-2.475 1.197-3.082 2.43l-.472.96v16.638l.39.741c.52.986 1.26 1.702 2.228 2.156 1.156.542 2.741.533 3.873-.023.883-.434 1.636-1.18 2.138-2.122.312-.583.328-.772.37-4.246l.044-3.636-1.536-1.332a159.693 159.693 0 0 0-1.581-1.36c-.024-.015.347-2.055.825-4.532.673-3.484.833-4.55.705-4.703-.38-.458-1.705-.955-2.664-.999-.525-.023-1.082-.011-1.238.028Zm-72.272 8.091c-.423.119-.977.343-1.23.5-.655.405-1.464 1.342-1.818 2.108-.296.64-.304.823-.304 6.912v6.255l.377.803c.46.98 1.25 1.795 2.188 2.256.588.29.918.347 1.984.348 1.115.002 1.373-.047 2.006-.38.95-.5 1.957-1.632 2.284-2.57.235-.672.259-1.307.259-6.783v-6.042l-.37-.788c-.52-1.11-1.15-1.768-2.165-2.263-1.084-.529-2.162-.648-3.21-.356ZM98.988 87.99c-.87.182-1.123.349-5.986 3.941-5.313 3.926-5.483 4.062-5.903 4.727-1.86 2.947.017 6.756 3.486 7.07 1.59.145 1.913-.034 7.417-4.094 2.76-2.036 5.226-3.938 5.48-4.227.95-1.082 1.304-3.013.816-4.445-.72-2.11-3.09-3.436-5.31-2.972Zm-14.422 22.76c-.918 4.077-1.651 7.429-1.63 7.449.023.02 2.184.449 4.803.953 4.205.81 4.774.89 4.864.69.126-.279 2.554-15.785 2.497-15.948-.022-.064-.319.07-.658.299-2.348 1.58-5.31 1.435-7.509-.368-.326-.267-.616-.485-.645-.485-.029 0-.804 3.335-1.722 7.41Z"/></svg>