<svg width="128" height="128" xmlns="http://www.w3.org/2000/svg"><path fill="#fff" fill-rule="evenodd" stroke="#000" stroke-width=".712" d="M62.284 18.084c-5.56.597-10.377 3.954-12.929 9.01-.718 1.423-1.356 3.42-1.527 4.783-.083.661-.148 4.052-.148 7.737v6.559l.363 1.26c.2.692.638 1.935.974 2.763l.61 1.505-.393.978c-.706 1.758-.667 3.507.114 5.155.432.91 1.733 2.277 2.572 2.704l.606.308v4.54H75.323l.04-2.227.039-2.228.712-.413c1.85-1.07 3.062-2.95 3.177-4.926.08-1.372-.13-2.333-.79-3.6l-.5-.962.435-1.098c1.084-2.736 1.299-4.537 1.299-10.903 0-6.407-.218-8.224-1.312-10.94-1.46-3.623-4.629-6.922-8.24-8.577-1.577-.722-2.36-.966-3.903-1.215-1.896-.305-2.723-.35-3.996-.213Zm-36.43 33.308c-1.146.367-1.994 1.058-2.51 2.049l-.464.888.001 6.985.002 6.986.333.713c.432.925 1.109 1.589 2.086 2.046 1.147.536 2.74.522 3.88-.034.458-.223 1.063-.678 1.382-1.04 1.03-1.166 1.026-1.13.98-8.949l-.041-6.945-.38-.64c-.518-.871-1.194-1.488-2.04-1.86-.9-.397-2.335-.485-3.23-.199Zm29.825.215c.714.197 1.738 1.136 2.124 1.948.725 1.524.033 3.976-1.318 4.673-.416.214-.432.212-.32-.038.064-.144.143-.554.175-.91.05-.562.003-.706-.36-1.093-.721-.77-1.585-.784-2.332-.04-.515.514-.559 1.364-.107 2.092l.302.488-.552-.23c-1.242-.516-2.05-1.718-2.158-3.21-.078-1.09.197-1.865.979-2.753.845-.96 2.19-1.309 3.567-.927Zm18.784-.055c.578.115 1.794 1.202 2.173 1.944.38.741.407 2.38.053 3.123-.257.539-1.05 1.423-1.487 1.656-.249.133-.252.11-.066-.43.312-.902.021-1.624-.832-2.064-.211-.109-.525-.198-.696-.198-.477 0-1.217.522-1.415.998-.214.516-.101 1.352.232 1.72.343.377.162.47-.375.193-1.382-.712-2.236-2.242-2.098-3.758.207-2.274 2.16-3.653 4.511-3.184Zm39.48 1.694c-.796.244-1.883 1.168-2.31 1.963-.313.584-.315.628-.385 10.036l-.072 9.449H96.362l-2.444-2.77c-2.641-2.996-2.97-3.244-3.94-2.977-.268.074-.617.278-.775.454-.158.176-1.56 2.142-3.115 4.37a501.767 501.767 0 0 1-3.058 4.35c-.226.297-.25.278-1.435-1.116-.662-.78-1.415-1.604-1.673-1.83l-.468-.41H74.24l-1.13-1.341c-1.47-1.747-2.23-2.118-3.183-1.557-.233.137-1.29 1.609-2.665 3.713-1.253 1.917-2.34 3.49-2.414 3.494-.075.006-1.675-2.11-3.557-4.702-3.508-4.833-3.797-5.149-4.703-5.149-.672 0-1.111.405-2.352 2.17-.666.947-1.485 2.094-1.819 2.55l-.607.827-3.162-.038-3.162-.038-2.53-3.552c-1.393-1.954-2.69-3.673-2.883-3.82-.433-.33-1.376-.354-1.845-.047-.187.122-2.097 2.909-4.245 6.192-2.148 3.283-3.94 5.973-3.981 5.978-.042.005-1.135-1.046-2.428-2.336l-2.352-2.344h-8.471v-6.368c0-7.278-.008-7.346-1.066-8.519-2.206-2.446-6.59-1.582-7.48 1.474-.117.402-.15 5.172-.119 17.391.04 15.985.055 16.864.303 17.36.39.783 1.192 1.533 2.081 1.949 1.156.54 2.746.528 3.89-.03.461-.225 1.062-.678 1.39-1.049 1.01-1.146 1.001-1.046 1.001-10.44v-8.358H23.848l2.61 2.712c1.436 1.491 2.787 2.802 3.001 2.912a1.6 1.6 0 0 0 1.618-.06c.293-.178 1.647-2.121 4.261-6.112 2.108-3.219 3.854-5.83 3.88-5.803.028.027.98 1.348 2.116 2.937 1.137 1.588 2.212 2.99 2.39 3.115.464.329 8.941.423 9.697.108.38-.158.816-.658 1.88-2.151l1.385-1.945 1.091 1.488c.6.818 2.182 2.996 3.514 4.839 2.48 3.428 2.83 3.786 3.706 3.786.774 0 1.143-.429 3.564-4.139l2.402-3.68.434.535c.722.888 1.192 1.274 1.666 1.368.248.05 1.484.091 2.749.093l2.298.003 1.853 2.194c1.998 2.368 2.488 2.735 3.326 2.496.236-.068.53-.18.654-.248.123-.07 1.636-2.137 3.363-4.596 1.727-2.458 3.195-4.489 3.262-4.512.067-.023.976.929 2.02 2.115 1.197 1.361 2.069 2.228 2.363 2.35.376.157 2.01.195 8.382.195h7.915v7.052c0 5.104.047 7.215.172 7.638.254.86 1.542 2.103 2.511 2.424 1.041.344 2.705.263 3.606-.176.869-.424 1.66-1.206 2.032-2.009l.302-.649V56.08l-.332-.672c-.424-.858-1.547-1.866-2.403-2.157-.81-.275-2.307-.277-3.193-.005Zm-29.395 4.379c-1.474.413-2.639 1.668-2.954 3.18-.242 1.165-.112 3.351.25 4.163a4.084 4.084 0 0 0 2.012 2.077c1.087.525 2.88.56 3.879.074 1.012-.49 1.654-1.1 2.088-1.984.378-.766.402-.921.4-2.66-.003-2.06-.176-2.662-1.057-3.661-.973-1.105-3.029-1.635-4.618-1.189Zm-43.78 23.298c-1.385.457-2.2 1.15-2.741 2.327-.337.733-.34.794-.297 4.477.042 3.513.062 3.767.353 4.302.426.785 1.267 1.558 2.114 1.945.97.443 2.692.45 3.66.014 1.025-.461 1.91-1.357 2.258-2.285.28-.745.296-1.027.255-4.427-.05-4.081-.078-4.206-1.208-5.293-1.071-1.03-3.044-1.506-4.395-1.06Zm43.73 4.553c-1.259.41-2.113 1.151-2.64 2.29-.289.627-.328.93-.328 2.568 0 1.786.017 1.89.43 2.695.697 1.358 2.34 2.339 3.918 2.339 1.577 0 3.22-.981 3.917-2.339.414-.807.43-.906.426-2.695-.003-1.637-.043-1.946-.338-2.602-.388-.866-1.2-1.652-2.135-2.065-.825-.365-2.429-.46-3.25-.191Zm-31.88 2.041c-.05.294-.09 1.568-.09 2.832-.003 3.42-.142 4.214-1.069 6.099-.643 1.308-.93 1.72-1.68 2.42-1.654 1.544-4.089 2.454-7.52 2.814-1.09.114-2.106.274-2.258.355-.153.081-.505.413-.784.737-.557.649-.82 1.578-1.091 3.868-.145 1.218-.139 1.275.21 1.868.433.736 1.07 1.294 1.932 1.691.529.244.892.292 2.067.274 2.695-.042 6.485-.773 8.83-1.702 5.36-2.125 8.632-5.99 9.766-11.537.303-1.485.57-5.454.573-8.51l.001-1.741h-8.8l-.088.532Zm13.925 2.771c.071 2.46.166 3.618.37 4.536 1.593 7.127 6.05 12.12 12.469 13.966 1.892.544 3.045.69 5.57.703 1.978.011 2.346-.023 2.778-.255.972-.523 1.553-1.096 1.987-1.962.367-.733.436-1.035.436-1.908 0-2.066-.931-3.474-2.717-4.11-.348-.123-1.494-.315-2.546-.427-3.37-.357-5.14-1.048-6.69-2.61-1.067-1.078-1.678-2.14-2.324-4.045l-.535-1.579-.005-2.806-.006-2.806H66.448l.095 3.303Zm29.766 2.558c.042 5.61.057 5.889.344 6.508.44.945 1.109 1.633 2.026 2.083.695.34.983.396 2.021.395.933-.001 1.364-.072 1.87-.304.943-.432 1.75-1.215 2.14-2.076.335-.74.338-.789.38-6.606l.044-5.861h-8.869l.044 5.86Zm-58.436 15.807c.003.235.035.313.071.175a.812.812 0 0 0-.005-.426c-.04-.096-.069.017-.066.251Zm-.122 1.634c0 .586.025.826.056.533.03-.293.03-.772 0-1.066-.031-.292-.056-.053-.056.533Z"/></svg>