<?xml version="1.0" encoding="UTF-8"?><svg id="Layer_1" xmlns="http://www.w3.org/2000/svg" xmlns:xlink="http://www.w3.org/1999/xlink" viewBox="0 0 128 113.12"><defs><linearGradient id="linear-gradient" x1="80.36" y1="69.62" x2="80.36" y2="10.22" gradientTransform="translate(0 115.12) scale(1 -1)" gradientUnits="userSpaceOnUse"><stop offset=".3" stop-color="#6d3b78"/><stop offset="1" stop-color="#b062c2"/></linearGradient><linearGradient id="linear-gradient-2" x1="47.5" y1="80.36" x2="47.5" y2="2" xlink:href="#linear-gradient"/><linearGradient id="linear-gradient-3" x1="88.8" y1="64.56" x2="88.8" y2="38.65" xlink:href="#linear-gradient"/><linearGradient id="linear-gradient-4" x1="105.74" y1="83.52" x2="105.74" y2="36.13" xlink:href="#linear-gradient"/><linearGradient id="linear-gradient-5" x1="122.94" y1="74.68" x2="122.94" y2="53.19" xlink:href="#linear-gradient"/><linearGradient id="linear-gradient-6" x1="5.06" y1="55.43" x2="5.06" y2="33.95" xlink:href="#linear-gradient"/><linearGradient id="linear-gradient-7" x1="22" y1="76.92" x2="22" y2="30.16" xlink:href="#linear-gradient"/><linearGradient id="linear-gradient-8" x1="38.95" y1="65.55" x2="38.95" y2="35.84" xlink:href="#linear-gradient"/></defs><path d="m71.83,45.5c2.79,0,5.06,2.26,5.06,5.06v32.39s0,.02,0,.04c0,.06,0,.18,0,.34.01.33.04.83.13,1.44.17,1.25.53,2.84,1.26,4.35.72,1.49,1.75,2.84,3.26,3.84,1.49.98,3.77,1.83,7.35,1.83,2.79,0,5.06,2.26,5.06,5.06s-2.26,5.06-5.06,5.06c-5.27,0-9.55-1.28-12.91-3.5-3.35-2.2-5.47-5.12-6.81-7.89-1.32-2.75-1.91-5.43-2.17-7.38-.13-.99-.19-1.82-.21-2.43-.01-.3-.01-.55-.01-.74,0-.09,0-.17,0-.23h0v-32.18c0-2.79,2.26-5.06,5.06-5.06Z" style="fill:url(#linear-gradient); fill-rule:evenodd; stroke-width:0px;"/><path d="m56.03,34.76c-2.79,0-5.06,2.26-5.06,5.06v51.35s0,.02,0,.04c0,.06,0,.18,0,.34-.01.33-.04.83-.13,1.44-.17,1.25-.53,2.84-1.26,4.35-.72,1.49-1.75,2.84-3.26,3.84-1.49.98-3.77,1.83-7.35,1.83-2.79,0-5.06,2.26-5.06,5.06s2.26,5.06,5.06,5.06c5.27,0,9.55-1.28,12.91-3.5,3.35-2.2,5.47-5.12,6.81-7.89,1.32-2.75,1.91-5.43,2.17-7.38.13-.99.19-1.82.21-2.43.01-.3.01-.55.01-.74,0-.09,0-.17,0-.23h0v-51.14c0-2.79-2.26-5.06-5.06-5.06Z" style="fill:url(#linear-gradient-2); fill-rule:evenodd; stroke-width:0px;"/><path d="m81.94,30.33h-.04c-.21,3.35-1.27,6.46-2.94,9.1h.12c-.05.01-.11.04-.17.09-.28.44-.59.88-.91,1.29-.53,1.03-1.08,2.52-1.43,4.12.2.99.31,2.02.31,3.08,0,6.73-4.35,12.35-10.13,13.63.01-.13.02-.25.02-.38,0-1.73-1.27-3.14-2.84-3.14s-2.84,1.4-2.84,3.14c0,.07,0,.15,0,.22-5.46-1.54-9.49-6.99-9.49-13.47h-.59c0-2.61-.92-5.53-1.78-7.21-.32-.42-.62-.85-.91-1.29-.06-.05-.12-.08-.17-.09h.12c-1.68-2.65-2.73-5.76-2.94-9.1h-.04v-11.38h0C45.29,8.49,53.49,0,63.61,0s18.33,8.49,18.33,18.96c0,.03,0,.07,0,.1v11.27Z" style="fill:#6d3b78; fill-rule:evenodd; stroke-width:0px;"/><path d="m88.8,50.56c2.79,0,5.06,2.26,5.06,5.06v15.8c0,2.79-2.26,5.06-5.06,5.06s-5.06-2.26-5.06-5.06v-15.8c0-2.79,2.26-5.06,5.06-5.06Z" style="fill:url(#linear-gradient-3); fill-rule:evenodd; stroke-width:0px;"/><path d="m105.74,31.6c2.79,0,5.06,2.26,5.06,5.06v37.29c0,2.79-2.26,5.06-5.06,5.06s-5.06-2.26-5.06-5.06v-37.29c0-2.79,2.26-5.06,5.06-5.06Z" style="fill:url(#linear-gradient-4); fill-rule:evenodd; stroke-width:0px;"/><path d="m122.94,40.45c2.79,0,5.06,2.26,5.06,5.06v11.38c0,2.79-2.26,5.06-5.06,5.06s-5.06-2.26-5.06-5.06v-11.38c0-2.79,2.26-5.06,5.06-5.06Z" style="fill:url(#linear-gradient-5); fill-rule:evenodd; stroke-width:0px;"/><path d="m5.06,59.69c2.79,0,5.06,2.26,5.06,5.06v11.38c0,2.79-2.26,5.06-5.06,5.06s-5.06-2.26-5.06-5.06v-11.38c0-2.79,2.26-5.06,5.06-5.06Z" style="fill:url(#linear-gradient-6); fill-rule:evenodd; stroke-width:0px;"/><path d="m22,38.2c2.79,0,5.06,2.26,5.06,5.06v36.65c0,2.79-2.26,5.06-5.06,5.06s-5.06-2.26-5.06-5.06v-36.65c0-2.79,2.26-5.06,5.06-5.06Z" style="fill:url(#linear-gradient-7); fill-rule:evenodd; stroke-width:0px;"/><path d="m38.95,49.58c2.79,0,5.06,2.26,5.06,5.06v19.59c0,2.79-2.26,5.06-5.06,5.06s-5.06-2.26-5.06-5.06v-19.59c0-2.79,2.26-5.06,5.06-5.06Z" style="fill:url(#linear-gradient-8); fill-rule:evenodd; stroke-width:0px;"/><ellipse cx="74.78" cy="42.42" rx="6.74" ry="7.03" style="fill:#6d3b78; stroke-width:0px;"/><ellipse cx="74.78" cy="42.42" rx="4.04" ry="4.22" style="fill:#fff; stroke-width:0px;"/><ellipse cx="53.29" cy="42.42" rx="6.74" ry="7.03" style="fill:#6d3b78; stroke-width:0px;"/><ellipse cx="53.29" cy="42.42" rx="4.04" ry="4.22" style="fill:#fff; stroke-width:0px;"/><circle cx="53.5" cy="44.87" r="1.9" style="fill:#393939; stroke-width:0px;"/><circle cx="74.99" cy="44.87" r="1.9" style="fill:#393939; stroke-width:0px;"/></svg>