<svg width="969" height="694" viewBox="0 0 969 694" fill="none" xmlns="http://www.w3.org/2000/svg">
<rect width="969" height="694" fill="white"/>
<path d="M227.702 626.239C225.652 626.239 224.171 625.926 223.259 625.299C222.348 624.673 221.807 623.875 221.636 622.907C221.465 621.939 221.38 620.885 221.38 619.746V589.842C221.38 588.703 221.465 587.677 221.636 586.766C221.864 585.798 222.433 585.029 223.345 584.459C224.256 583.833 225.766 583.519 227.873 583.519C229.981 583.519 231.518 583.947 232.487 584.801C233.455 585.598 233.939 586.937 233.939 588.817L232.829 589.756C232.942 589.472 233.284 588.987 233.854 588.304C234.423 587.62 235.164 586.908 236.075 586.168C236.987 585.428 238.04 584.801 239.236 584.288C240.49 583.719 241.828 583.434 243.252 583.434C245.132 583.434 246.812 583.719 248.293 584.288C249.831 584.801 251.198 585.598 252.394 586.681C253.647 587.706 254.729 589.016 255.641 590.611C256.438 589.472 257.407 588.361 258.546 587.279C259.685 586.196 261.023 585.285 262.561 584.545C264.156 583.804 265.922 583.434 267.859 583.434C271.162 583.434 273.953 584.288 276.232 585.997C278.567 587.649 280.333 590.041 281.529 593.174C282.725 596.307 283.323 600.095 283.323 604.537V619.831C283.323 620.913 283.209 621.967 282.981 622.992C282.811 623.961 282.269 624.758 281.358 625.385C280.447 625.954 278.937 626.239 276.83 626.239C274.722 626.239 273.213 625.926 272.301 625.299C271.447 624.673 270.906 623.875 270.678 622.907C270.507 621.882 270.422 620.828 270.422 619.746V604.452C270.422 602.686 270.222 601.205 269.824 600.009C269.425 598.813 268.798 597.902 267.944 597.275C267.147 596.592 266.121 596.25 264.868 596.25C263.558 596.25 262.447 596.563 261.536 597.19C260.625 597.759 259.941 598.671 259.486 599.924C259.03 601.12 258.802 602.658 258.802 604.537V619.831C258.802 620.97 258.66 622.052 258.375 623.078C258.09 624.046 257.464 624.844 256.495 625.47C255.584 626.04 254.103 626.296 252.052 626.239C250.002 626.182 248.549 625.84 247.695 625.214C246.841 624.587 246.328 623.79 246.157 622.821C245.986 621.796 245.901 620.771 245.901 619.746V604.452C245.901 602.686 245.701 601.205 245.303 600.009C244.904 598.756 244.306 597.816 243.508 597.19C242.711 596.563 241.657 596.25 240.347 596.25C238.923 596.25 237.756 596.62 236.844 597.361C235.933 598.101 235.249 599.098 234.794 600.351C234.395 601.547 234.196 602.914 234.196 604.452V619.831C234.196 620.97 234.082 622.024 233.854 622.992C233.683 623.961 233.142 624.758 232.23 625.385C231.319 625.954 229.81 626.239 227.702 626.239Z" fill="#F5F5F5"/>
<path d="M299.596 643.498C297.261 642.472 295.894 641.333 295.495 640.08C295.153 638.827 295.466 637.147 296.435 635.039L317.88 587.108C318.848 584.886 319.902 583.576 321.041 583.178C322.237 582.722 324.003 582.95 326.338 583.861C328.617 584.943 329.927 586.083 330.269 587.279C330.667 588.475 330.411 590.07 329.5 592.063L307.969 640.337C307.001 642.558 305.947 643.896 304.808 644.352C303.669 644.808 301.931 644.523 299.596 643.498ZM307.029 623.59L286.951 593.003C285.698 591.123 285.185 589.557 285.413 588.304C285.698 587.051 286.837 585.769 288.831 584.459C291.052 583.092 292.761 582.58 293.957 582.921C295.21 583.206 296.463 584.317 297.716 586.253L312.497 608.895L307.029 623.59Z" fill="#F5F5F5"/>
<path d="M351.054 626.154C348.491 626.154 346.013 625.612 343.621 624.53C341.285 623.391 339.206 621.825 337.384 619.831C335.561 617.837 334.108 615.559 333.026 612.996C332.001 610.376 331.488 607.613 331.488 604.708C331.488 601.917 332.001 599.269 333.026 596.762C334.108 594.199 335.561 591.949 337.384 590.013C339.263 588.019 341.371 586.453 343.706 585.314C346.041 584.174 348.491 583.605 351.054 583.605C353.788 583.605 356.18 584.174 358.231 585.314C360.338 586.396 362.104 587.905 363.528 589.842C364.952 591.778 366.006 594.028 366.689 596.592C367.43 599.155 367.828 601.832 367.885 604.623C367.942 607.528 367.601 610.262 366.86 612.825C366.177 615.388 365.123 617.667 363.699 619.66C362.275 621.654 360.509 623.249 358.402 624.445C356.351 625.584 353.902 626.154 351.054 626.154ZM352.763 613.509C354.301 613.509 355.668 613.138 356.864 612.398C358.117 611.6 359.114 610.547 359.854 609.237C360.651 607.927 361.05 606.474 361.05 604.879C361.05 603.227 360.68 601.775 359.939 600.522C359.199 599.212 358.202 598.186 356.949 597.446C355.696 596.705 354.272 596.335 352.677 596.335C351.139 596.335 349.715 596.705 348.405 597.446C347.152 598.186 346.155 599.212 345.415 600.522C344.731 601.775 344.39 603.227 344.39 604.879C344.39 606.474 344.76 607.927 345.5 609.237C346.241 610.547 347.266 611.6 348.576 612.398C349.886 613.138 351.282 613.509 352.763 613.509ZM367.714 626.239C365.778 626.239 364.325 625.926 363.357 625.299C362.389 624.673 361.762 623.704 361.477 622.394V570.618C361.477 569.536 361.534 568.511 361.648 567.542C361.819 566.517 362.332 565.691 363.186 565.064C364.041 564.438 365.522 564.125 367.629 564.125C369.737 564.125 371.217 564.438 372.072 565.064C372.983 565.634 373.524 566.403 373.695 567.371C373.923 568.34 374.037 569.393 374.037 570.533V619.746C374.037 620.828 373.923 621.882 373.695 622.907C373.524 623.875 372.983 624.673 372.072 625.299C371.217 625.926 369.765 626.239 367.714 626.239Z" fill="#F5F5F5"/>
<path d="M402.269 627.008C398.281 627.008 394.835 626.353 391.931 625.043C389.083 623.733 386.747 622.024 384.924 619.917C383.102 617.752 381.735 615.36 380.823 612.74C379.969 610.119 379.542 607.499 379.542 604.879C379.542 600.607 380.51 596.819 382.447 593.516C384.383 590.212 387.06 587.62 390.478 585.741C393.896 583.804 397.826 582.836 402.269 582.836C405.572 582.836 408.42 583.377 410.813 584.459C413.262 585.484 415.255 586.851 416.793 588.56C418.388 590.212 419.556 592.006 420.296 593.943C421.094 595.88 421.493 597.731 421.493 599.497C421.493 602.629 420.724 604.965 419.186 606.503C417.705 607.983 415.797 608.724 413.461 608.724H393.127C393.241 610.205 393.753 611.458 394.665 612.483C395.633 613.509 396.829 614.306 398.253 614.876C399.677 615.445 401.186 615.73 402.781 615.73C404.148 615.73 405.344 615.673 406.37 615.559C407.395 615.388 408.278 615.189 409.018 614.961C409.759 614.676 410.442 614.42 411.069 614.192C411.695 613.907 412.237 613.679 412.692 613.509C413.205 613.338 413.689 613.224 414.145 613.167C414.999 613.11 415.768 613.366 416.452 613.936C417.192 614.448 417.847 615.246 418.417 616.328C418.815 616.955 419.072 617.553 419.186 618.122C419.357 618.692 419.442 619.261 419.442 619.831C419.442 621.198 418.73 622.423 417.306 623.505C415.939 624.587 413.974 625.442 411.411 626.068C408.904 626.695 405.857 627.008 402.269 627.008ZM393.127 601.718H406.626C407.537 601.718 408.192 601.576 408.591 601.291C409.047 600.949 409.275 600.322 409.275 599.411C409.275 598.386 408.961 597.503 408.335 596.762C407.708 595.965 406.854 595.367 405.772 594.968C404.746 594.513 403.55 594.285 402.183 594.285C400.417 594.285 398.851 594.626 397.484 595.31C396.117 595.993 395.035 596.905 394.237 598.044C393.497 599.183 393.127 600.408 393.127 601.718Z" fill="#F5F5F5"/>
<path d="M448.073 626.581C445.567 626.581 443.004 626.125 440.384 625.214C437.821 624.245 435.428 622.85 433.207 621.027C431.043 619.148 429.305 616.869 427.995 614.192C426.685 611.458 426.03 608.325 426.03 604.794C426.03 601.262 426.685 598.158 427.995 595.481C429.305 592.804 431.043 590.554 433.207 588.731C435.371 586.908 437.735 585.541 440.298 584.63C442.919 583.662 445.453 583.178 447.903 583.178C450.01 583.178 451.89 583.434 453.542 583.947C455.25 584.402 456.674 584.972 457.814 585.655C459.01 586.339 459.864 586.937 460.377 587.45C461.345 588.19 462.199 588.931 462.94 589.671C463.68 590.411 464.022 591.38 463.965 592.576C463.908 593.202 463.709 593.858 463.367 594.541C463.025 595.168 462.598 595.823 462.086 596.506C460.377 598.898 458.668 599.981 456.959 599.753C456.105 599.582 455.307 599.297 454.567 598.898C453.883 598.5 453.2 598.101 452.516 597.702C451.89 597.247 451.206 596.876 450.466 596.592C449.725 596.307 448.871 596.164 447.903 596.164C446.251 596.164 444.77 596.535 443.46 597.275C442.15 598.016 441.096 599.041 440.298 600.351C439.558 601.661 439.188 603.17 439.188 604.879C439.188 606.531 439.558 608.012 440.298 609.322C441.096 610.632 442.121 611.686 443.374 612.483C444.684 613.224 446.137 613.594 447.732 613.594C448.7 613.594 449.526 613.48 450.209 613.252C450.95 613.024 451.576 612.768 452.089 612.483C452.602 612.142 453 611.885 453.285 611.714C453.969 611.259 454.624 610.86 455.25 610.518C455.877 610.119 456.532 609.92 457.215 609.92C458.013 609.92 458.839 610.233 459.693 610.86C460.548 611.43 461.487 612.369 462.513 613.679C463.424 614.876 463.937 615.986 464.051 617.012C464.222 618.037 463.994 619.005 463.367 619.917C462.741 620.828 461.772 621.711 460.462 622.565C460.007 622.964 459.181 623.476 457.984 624.103C456.845 624.73 455.421 625.299 453.712 625.812C452.061 626.324 450.181 626.581 448.073 626.581Z" fill="#F5F5F5"/>
<path d="M476.942 626.239C474.834 626.239 473.325 625.954 472.414 625.385C471.559 624.758 471.018 623.961 470.79 622.992C470.619 621.967 470.534 620.913 470.534 619.831V590.013C470.534 588.874 470.619 587.82 470.79 586.851C471.018 585.883 471.588 585.114 472.499 584.545C473.41 583.918 474.92 583.605 477.027 583.605C479.078 583.605 480.53 583.918 481.385 584.545C482.296 585.171 482.837 585.969 483.008 586.937C483.236 587.905 483.35 588.987 483.35 590.184V619.917C483.35 620.999 483.236 622.052 483.008 623.078C482.837 624.046 482.296 624.815 481.385 625.385C480.53 625.954 479.049 626.239 476.942 626.239ZM476.942 577.368C474.777 577.368 473.24 577.054 472.328 576.428C471.417 575.801 470.847 574.975 470.619 573.95C470.449 572.925 470.363 571.843 470.363 570.703C470.363 569.507 470.477 568.425 470.705 567.457C470.933 566.431 471.502 565.634 472.414 565.064C473.325 564.438 474.863 564.125 477.027 564.125C479.135 564.125 480.644 564.438 481.556 565.064C482.467 565.691 483.008 566.517 483.179 567.542C483.407 568.567 483.521 569.65 483.521 570.789C483.521 571.928 483.407 573.01 483.179 574.036C483.008 575.061 482.467 575.887 481.556 576.513C480.644 577.083 479.106 577.368 476.942 577.368Z" fill="#F5F5F5"/>
<path d="M506.178 626.923C504.64 626.923 502.96 626.752 501.137 626.41C499.372 626.068 497.634 625.584 495.926 624.957C494.217 624.274 492.793 623.505 491.654 622.651C490.514 621.739 489.859 620.714 489.688 619.575C489.574 619.005 489.574 618.407 489.688 617.781C489.859 617.097 490.144 616.414 490.543 615.73C490.942 614.99 491.426 614.221 491.995 613.423C492.451 612.797 492.964 612.398 493.533 612.227C494.103 612.056 494.758 612.085 495.498 612.312C496.41 612.483 497.321 612.797 498.232 613.252C499.201 613.651 500.141 614.107 501.052 614.619C502.02 615.075 503.017 615.502 504.042 615.901C505.067 616.243 506.121 616.413 507.203 616.413C508.798 616.413 510.023 616.186 510.877 615.73C511.789 615.217 512.244 614.534 512.244 613.679C512.244 613.053 512.045 612.54 511.646 612.142C511.305 611.743 510.792 611.401 510.108 611.116C509.482 610.775 508.741 610.49 507.887 610.262C507.033 610.034 506.093 609.806 505.068 609.578C504.099 609.294 503.102 609.009 502.077 608.724C500.653 608.325 499.286 607.813 497.976 607.186C496.666 606.559 495.47 605.762 494.388 604.794C493.305 603.768 492.451 602.544 491.824 601.12C491.198 599.639 490.885 597.845 490.885 595.737C490.885 592.946 491.54 590.611 492.85 588.731C494.16 586.851 496.068 585.428 498.574 584.459C501.08 583.434 504.128 582.921 507.716 582.921C508.741 582.921 509.767 582.978 510.792 583.092C511.817 583.206 512.814 583.405 513.782 583.69C514.808 583.975 515.804 584.317 516.773 584.716C517.741 585.114 518.709 585.598 519.678 586.168C521.386 586.965 522.269 588.048 522.326 589.415C522.383 590.782 521.899 592.177 520.874 593.601C520.247 594.57 519.592 595.282 518.909 595.737C518.225 596.136 517.513 596.25 516.773 596.079C515.861 595.851 514.865 595.481 513.782 594.968C512.757 594.456 511.646 593.971 510.45 593.516C509.311 593.06 508.172 592.832 507.033 592.832C506.064 592.832 505.238 592.975 504.555 593.259C503.871 593.487 503.359 593.829 503.017 594.285C502.675 594.683 502.504 595.168 502.504 595.737C502.504 596.478 502.704 597.076 503.102 597.531C503.558 597.93 504.156 598.272 504.897 598.557C505.637 598.841 506.491 599.098 507.46 599.326C508.428 599.553 509.482 599.781 510.621 600.009C512.159 600.294 513.725 600.693 515.32 601.205C516.972 601.661 518.453 602.344 519.763 603.256C521.13 604.167 522.212 605.392 523.01 606.93C523.864 608.468 524.291 610.49 524.291 612.996C524.291 617.496 522.725 620.942 519.592 623.334C516.459 625.726 511.988 626.923 506.178 626.923Z" fill="#F5F5F5"/>
<path d="M536.766 626.239C534.659 626.239 533.149 625.954 532.238 625.385C531.383 624.758 530.842 623.961 530.615 622.992C530.444 621.967 530.358 620.913 530.358 619.831V590.013C530.358 588.874 530.444 587.82 530.615 586.851C530.842 585.883 531.412 585.114 532.323 584.545C533.235 583.918 534.744 583.605 536.852 583.605C538.902 583.605 540.355 583.918 541.209 584.545C542.12 585.171 542.661 585.969 542.832 586.937C543.06 587.905 543.174 588.987 543.174 590.184V619.917C543.174 620.999 543.06 622.052 542.832 623.078C542.661 624.046 542.12 624.815 541.209 625.385C540.355 625.954 538.874 626.239 536.766 626.239ZM536.766 577.368C534.602 577.368 533.064 577.054 532.152 576.428C531.241 575.801 530.671 574.975 530.444 573.95C530.273 572.925 530.187 571.843 530.187 570.703C530.187 569.507 530.301 568.425 530.529 567.457C530.757 566.431 531.327 565.634 532.238 565.064C533.149 564.438 534.687 564.125 536.852 564.125C538.959 564.125 540.469 564.438 541.38 565.064C542.291 565.691 542.832 566.517 543.003 567.542C543.231 568.567 543.345 569.65 543.345 570.789C543.345 571.928 543.231 573.01 543.003 574.036C542.832 575.061 542.291 575.887 541.38 576.513C540.469 577.083 538.931 577.368 536.766 577.368Z" fill="#F5F5F5"/>
<path d="M571.129 626.581C569.762 626.581 568.594 626.324 567.626 625.812C566.657 625.299 565.888 624.502 565.319 623.42L549.94 592.747C548.915 590.696 548.601 589.016 549 587.706C549.456 586.339 550.766 585.114 552.93 584.032C555.095 583.007 556.803 582.665 558.057 583.007C559.367 583.292 560.534 584.602 561.56 586.937L571.129 609.237L580.698 587.279C581.78 584.829 582.948 583.405 584.201 583.007C585.454 582.608 587.22 582.978 589.498 584.117C591.834 585.2 593.115 586.481 593.343 587.962C593.628 589.386 593.286 591.038 592.318 592.918L577.024 623.42C576.511 624.502 575.771 625.299 574.803 625.812C573.834 626.324 572.61 626.581 571.129 626.581Z" fill="#F5F5F5"/>
<path d="M617.452 627.008C613.465 627.008 610.019 626.353 607.114 625.043C604.266 623.733 601.931 622.024 600.108 619.917C598.285 617.752 596.918 615.36 596.007 612.74C595.153 610.119 594.725 607.499 594.725 604.879C594.725 600.607 595.694 596.819 597.63 593.516C599.567 590.212 602.244 587.62 605.662 585.741C609.079 583.804 613.009 582.836 617.452 582.836C620.756 582.836 623.604 583.377 625.996 584.459C628.445 585.484 630.439 586.851 631.977 588.56C633.572 590.212 634.739 592.006 635.48 593.943C636.277 595.88 636.676 597.731 636.676 599.497C636.676 602.629 635.907 604.965 634.369 606.503C632.888 607.983 630.98 608.724 628.645 608.724H608.31C608.424 610.205 608.937 611.458 609.848 612.483C610.816 613.509 612.013 614.306 613.437 614.876C614.861 615.445 616.37 615.73 617.965 615.73C619.332 615.73 620.528 615.673 621.553 615.559C622.579 615.388 623.461 615.189 624.202 614.961C624.942 614.676 625.626 614.42 626.252 614.192C626.879 613.907 627.42 613.679 627.876 613.509C628.388 613.338 628.873 613.224 629.328 613.167C630.183 613.11 630.952 613.366 631.635 613.936C632.376 614.448 633.031 615.246 633.6 616.328C633.999 616.955 634.255 617.553 634.369 618.122C634.54 618.692 634.626 619.261 634.626 619.831C634.626 621.198 633.914 622.423 632.49 623.505C631.122 624.587 629.157 625.442 626.594 626.068C624.088 626.695 621.041 627.008 617.452 627.008ZM608.31 601.718H621.81C622.721 601.718 623.376 601.576 623.775 601.291C624.23 600.949 624.458 600.322 624.458 599.411C624.458 598.386 624.145 597.503 623.518 596.762C622.892 595.965 622.037 595.367 620.955 594.968C619.93 594.513 618.734 594.285 617.367 594.285C615.601 594.285 614.035 594.626 612.668 595.31C611.301 595.993 610.218 596.905 609.421 598.044C608.68 599.183 608.31 600.408 608.31 601.718Z" fill="#F5F5F5"/>
<path d="M647.707 626.41C645.998 626.41 644.802 626.068 644.119 625.385C643.435 624.701 643.093 623.562 643.093 621.967C643.093 620.771 643.236 619.86 643.521 619.233C643.805 618.549 644.289 618.065 644.973 617.781C645.657 617.439 646.568 617.268 647.707 617.268C649.416 617.268 650.584 617.61 651.21 618.293C651.894 618.977 652.235 620.173 652.235 621.882C652.235 623.021 652.093 623.932 651.808 624.616C651.523 625.242 651.039 625.698 650.356 625.983C649.729 626.267 648.846 626.41 647.707 626.41Z" fill="#F5F5F5"/>
<path d="M696.005 626.239C694.752 626.239 693.841 625.983 693.271 625.47C692.758 624.957 692.445 624.16 692.331 623.078L692.673 618.806C692.103 619.717 691.22 620.771 690.024 621.967C688.828 623.106 687.262 624.132 685.325 625.043C683.388 625.897 681.025 626.324 678.234 626.324C675.5 626.324 672.936 625.783 670.544 624.701C668.209 623.619 666.13 622.109 664.307 620.173C662.541 618.236 661.146 616.015 660.12 613.509C659.152 611.002 658.668 608.325 658.668 605.477C658.668 602.686 659.152 600.066 660.12 597.617C661.146 595.111 662.57 592.918 664.392 591.038C666.215 589.158 668.294 587.677 670.63 586.595C673.022 585.513 675.556 584.972 678.234 584.972C680.74 584.972 682.876 585.314 684.642 585.997C686.407 586.624 687.917 587.478 689.17 588.56C690.48 589.586 691.619 590.753 692.587 592.063L692.417 588.475C692.36 587.222 692.616 586.339 693.186 585.826C693.812 585.257 694.78 584.972 696.09 584.972C697.173 584.972 697.942 585.143 698.397 585.484C698.91 585.826 699.252 586.31 699.423 586.937C699.593 587.563 699.679 588.332 699.679 589.244V622.223C699.679 623.021 699.593 623.733 699.423 624.359C699.252 624.986 698.91 625.442 698.397 625.726C697.885 626.068 697.087 626.239 696.005 626.239ZM679.515 619.148C681.794 619.148 683.873 618.549 685.752 617.353C687.689 616.157 689.198 614.562 690.281 612.569C691.42 610.518 691.989 608.183 691.989 605.563C691.989 602.886 691.391 600.55 690.195 598.557C689.056 596.506 687.518 594.911 685.581 593.772C683.702 592.576 681.623 591.978 679.344 591.978C676.667 591.978 674.332 592.604 672.338 593.858C670.402 595.054 668.864 596.677 667.725 598.728C666.585 600.778 666.016 603.113 666.016 605.734C666.016 608.297 666.585 610.604 667.725 612.654C668.864 614.648 670.43 616.243 672.424 617.439C674.474 618.578 676.838 619.148 679.515 619.148Z" fill="#F5F5F5"/>
<path d="M714.051 626.324C712.969 626.324 712.143 626.154 711.574 625.812C711.061 625.527 710.719 625.1 710.548 624.53C710.378 623.961 710.292 623.277 710.292 622.48V588.731C710.292 587.934 710.378 587.25 710.548 586.681C710.719 586.111 711.061 585.684 711.574 585.399C712.143 585.114 712.998 584.972 714.137 584.972C715.219 584.972 716.016 585.143 716.529 585.484C717.042 585.769 717.384 586.196 717.554 586.766C717.725 587.336 717.811 588.048 717.811 588.902V622.565C717.811 623.363 717.725 624.046 717.554 624.616C717.384 625.185 717.013 625.612 716.444 625.897C715.931 626.182 715.134 626.324 714.051 626.324ZM714.051 574.719C712.798 574.719 711.858 574.548 711.232 574.206C710.605 573.808 710.178 573.267 709.95 572.583C709.779 571.9 709.694 571.102 709.694 570.191C709.694 569.279 709.808 568.511 710.036 567.884C710.264 567.2 710.691 566.716 711.317 566.431C711.944 566.09 712.884 565.919 714.137 565.919C715.333 565.919 716.244 566.09 716.871 566.431C717.497 566.773 717.896 567.286 718.067 567.969C718.295 568.653 718.409 569.45 718.409 570.362C718.409 571.273 718.295 572.07 718.067 572.754C717.896 573.381 717.497 573.865 716.871 574.206C716.244 574.548 715.305 574.719 714.051 574.719Z" fill="#F5F5F5"/>
<path fill-rule="evenodd" clip-rule="evenodd" d="M499.924 248.813C510.785 248.813 519.59 257.618 519.59 268.479V394.216L519.58 394.474C519.58 394.507 519.579 394.565 519.579 394.646C519.578 394.892 519.582 395.345 519.605 395.977C519.652 397.247 519.778 399.191 520.102 401.577C520.764 406.447 522.176 412.605 525.018 418.508C527.809 424.305 531.822 429.557 537.704 433.431C543.507 437.252 552.377 440.56 566.298 440.56C577.159 440.56 585.964 449.365 585.964 460.226C585.964 471.088 577.159 479.893 566.298 479.893C545.802 479.893 529.167 474.904 516.072 466.28C503.056 457.709 494.777 446.368 489.579 435.571C484.431 424.88 482.156 414.445 481.127 406.87C480.606 403.033 480.387 399.792 480.299 397.432C480.256 396.249 480.245 395.276 480.246 394.549C480.247 394.185 480.251 393.882 480.256 393.643L480.257 393.607V268.479C480.257 257.618 489.062 248.813 499.924 248.813Z" fill="url(#paint0_linear_103_908)"/>
<path fill-rule="evenodd" clip-rule="evenodd" d="M438.455 207.021C427.593 207.021 418.788 215.826 418.788 226.688V426.174L418.798 426.432C418.798 426.465 418.799 426.523 418.799 426.604C418.8 426.849 418.796 427.303 418.773 427.934C418.726 429.204 418.6 431.149 418.276 433.534C417.615 438.404 416.202 444.563 413.36 450.465C410.569 456.262 406.556 461.514 400.674 465.388C394.872 469.209 386.001 472.518 372.081 472.518C361.219 472.518 352.414 481.322 352.414 492.184C352.414 503.045 361.219 511.85 372.081 511.85C392.577 511.85 409.211 506.862 422.307 498.238C435.322 489.666 443.601 478.325 448.799 467.529C453.947 456.837 456.222 446.402 457.251 438.827C457.772 434.99 457.991 431.75 458.079 429.39C458.123 428.206 458.134 427.234 458.132 426.507C458.131 426.143 458.127 425.84 458.122 425.601L458.121 425.564V226.688C458.121 215.826 449.316 207.021 438.455 207.021Z" fill="url(#paint1_linear_103_908)"/>
<path fill-rule="evenodd" clip-rule="evenodd" d="M539.244 189.813H539.088C538.26 202.83 534.167 214.925 527.648 225.229H528.104C527.896 225.278 527.67 225.394 527.43 225.572C526.322 227.302 525.146 228.98 523.906 230.603C521.857 234.599 519.715 240.411 518.362 246.646C519.157 250.506 519.577 254.522 519.577 258.646C519.577 284.842 502.645 306.688 480.163 311.665C480.217 311.177 480.245 310.681 480.245 310.177C480.245 303.44 475.292 297.979 469.183 297.979C463.073 297.979 458.12 303.44 458.12 310.177C458.12 310.465 458.129 310.75 458.147 311.033C436.927 305.039 421.245 283.857 421.245 258.646L418.94 258.646C418.94 248.5 415.345 237.127 411.999 230.6C410.759 228.978 409.584 227.301 408.477 225.573C408.236 225.394 408.01 225.278 407.801 225.229H408.258C401.739 214.925 397.647 202.83 396.818 189.813H396.663V184.897V145.564H396.664C396.664 104.834 428.582 71.8154 467.954 71.8154C507.327 71.8154 539.245 104.834 539.245 145.564C539.245 145.696 539.244 145.829 539.244 145.961V184.897V189.813Z" fill="#6D3B78"/>
<path fill-rule="evenodd" clip-rule="evenodd" d="M565.911 268.48C576.773 268.48 585.578 277.285 585.578 288.146V349.604C585.578 360.465 576.773 369.27 565.911 369.27C555.05 369.27 546.245 360.465 546.245 349.604V288.146C546.245 277.285 555.05 268.48 565.911 268.48Z" fill="url(#paint2_linear_103_908)"/>
<path fill-rule="evenodd" clip-rule="evenodd" d="M631.827 194.73C642.689 194.73 651.494 203.535 651.494 214.396V359.436C651.494 370.297 642.689 379.102 631.827 379.102C620.966 379.102 612.161 370.297 612.161 359.436V214.396C612.161 203.535 620.966 194.73 631.827 194.73Z" fill="url(#paint3_linear_103_908)"/>
<path fill-rule="evenodd" clip-rule="evenodd" d="M698.742 229.146C709.604 229.146 718.409 237.951 718.409 248.812L718.409 293.062C718.409 303.923 709.604 312.728 698.742 312.728C687.881 312.728 679.076 303.923 679.076 293.062L679.076 248.812C679.076 237.951 687.881 229.146 698.742 229.146Z" fill="url(#paint4_linear_103_908)"/>
<path fill-rule="evenodd" clip-rule="evenodd" d="M240.166 303.996C251.028 303.996 259.833 312.801 259.833 323.663V367.912C259.833 378.774 251.028 387.579 240.166 387.579C229.305 387.579 220.5 378.774 220.5 367.912V323.663C220.5 312.801 229.305 303.996 240.166 303.996Z" fill="url(#paint5_linear_103_908)"/>
<path fill-rule="evenodd" clip-rule="evenodd" d="M306.082 220.415C316.944 220.415 325.749 229.219 325.749 240.081V382.662C325.749 393.524 316.944 402.329 306.082 402.329C295.221 402.329 286.416 393.524 286.416 382.662V240.081C286.416 229.219 295.221 220.415 306.082 220.415Z" fill="url(#paint6_linear_103_908)"/>
<path fill-rule="evenodd" clip-rule="evenodd" d="M371.998 264.663C382.859 264.663 391.664 273.468 391.664 284.33V360.537C391.664 371.398 382.859 380.203 371.998 380.203C361.137 380.203 352.332 371.398 352.332 360.537V284.33C352.332 273.468 361.137 264.663 371.998 264.663Z" fill="url(#paint7_linear_103_908)"/>
<ellipse cx="511.38" cy="236.816" rx="26.2177" ry="27.3363" fill="#6D3B78"/>
<ellipse cx="511.38" cy="236.816" rx="15.7306" ry="16.4018" fill="white"/>
<ellipse cx="427.798" cy="236.816" rx="26.2177" ry="27.3363" fill="#6D3B78"/>
<ellipse cx="427.798" cy="236.816" rx="15.7306" ry="16.4018" fill="white"/>
<circle cx="428.622" cy="246.354" r="7.37489" fill="#393939"/>
<circle cx="512.204" cy="246.354" r="7.37489" fill="#393939"/>
<defs>
<linearGradient id="paint0_linear_103_908" x1="533.105" y1="248.813" x2="533.105" y2="479.893" gradientUnits="userSpaceOnUse">
<stop offset="0.296875" stop-color="#6D3B78"/>
<stop offset="1" stop-color="#B062C2"/>
</linearGradient>
<linearGradient id="paint1_linear_103_908" x1="405.273" y1="207.021" x2="405.273" y2="511.85" gradientUnits="userSpaceOnUse">
<stop offset="0.296875" stop-color="#6D3B78"/>
<stop offset="1" stop-color="#B062C2"/>
</linearGradient>
<linearGradient id="paint2_linear_103_908" x1="565.911" y1="268.48" x2="565.911" y2="369.27" gradientUnits="userSpaceOnUse">
<stop offset="0.296875" stop-color="#6D3B78"/>
<stop offset="1" stop-color="#B062C2"/>
</linearGradient>
<linearGradient id="paint3_linear_103_908" x1="631.827" y1="194.73" x2="631.827" y2="379.102" gradientUnits="userSpaceOnUse">
<stop offset="0.296875" stop-color="#6D3B78"/>
<stop offset="1" stop-color="#B062C2"/>
</linearGradient>
<linearGradient id="paint4_linear_103_908" x1="698.742" y1="229.146" x2="698.742" y2="312.728" gradientUnits="userSpaceOnUse">
<stop offset="0.296875" stop-color="#6D3B78"/>
<stop offset="1" stop-color="#B062C2"/>
</linearGradient>
<linearGradient id="paint5_linear_103_908" x1="240.166" y1="303.996" x2="240.166" y2="387.579" gradientUnits="userSpaceOnUse">
<stop offset="0.296875" stop-color="#6D3B78"/>
<stop offset="1" stop-color="#B062C2"/>
</linearGradient>
<linearGradient id="paint6_linear_103_908" x1="306.082" y1="220.415" x2="306.082" y2="402.329" gradientUnits="userSpaceOnUse">
<stop offset="0.296875" stop-color="#6D3B78"/>
<stop offset="1" stop-color="#B062C2"/>
</linearGradient>
<linearGradient id="paint7_linear_103_908" x1="371.998" y1="264.663" x2="371.998" y2="380.203" gradientUnits="userSpaceOnUse">
<stop offset="0.296875" stop-color="#6D3B78"/>
<stop offset="1" stop-color="#B062C2"/>
</linearGradient>
</defs>
</svg>
